<?xml version="1.0" encoding="iso-8859-1"?>
<!-- Generator: Adobe Illustrator 24.3.0, SVG Export Plug-In . SVG Version: 6.00 Build 0)  -->
<svg version="1.1" id="Layer_1" xmlns="http://www.w3.org/2000/svg" xmlns:xlink="http://www.w3.org/1999/xlink" x="0px" y="0px"
	 width="20px" height="21px" viewBox="0 0 20 21" enable-background="new 0 0 20 21" xml:space="preserve">
<g>
	<path opacity="0.4" fill="#333549" d="M14.16,16H5.81c-0.75,0-1.36-0.61-1.36-1.36V6.29c0-0.75,0.61-1.36,1.36-1.36h8.35
		c0.75,0,1.36,0.61,1.36,1.36v8.35C15.52,15.39,14.91,16,14.16,16z"/>
	<path fill="#333549" d="M14.13,3.36c0.71,0,1.42,0,2.13,0c0.53,0,0.86,0.33,0.87,0.87c0,0.73,0,1.45,0,2.18
		c0,0.3,0.19,0.49,0.48,0.49c0.28,0,0.47-0.19,0.47-0.48c0-0.76,0.01-1.53,0-2.29c-0.01-0.56-0.25-1.01-0.69-1.36
		c-0.24-0.19-0.53-0.28-0.82-0.35c-0.88,0-1.77,0-2.65,0c-0.01,0.01-0.01,0.02-0.02,0.02C13.64,2.58,13.55,2.77,13.61,3
		C13.67,3.25,13.83,3.36,14.13,3.36z"/>
	<path fill="#333549" d="M17.6,14.1c-0.29,0-0.48,0.2-0.48,0.52c0,0.71,0,1.41,0,2.12c0,0.58-0.32,0.9-0.9,0.9
		c-0.71,0-1.43,0-2.14,0c-0.26,0-0.43,0.13-0.48,0.37c-0.06,0.27,0.08,0.45,0.3,0.58c0.88,0,1.77,0,2.65,0
		c0.01-0.01,0.01-0.02,0.02-0.02c0.93-0.17,1.5-0.85,1.5-1.8c0-0.72,0-1.43,0-2.15C18.07,14.3,17.89,14.11,17.6,14.1z"/>
	<path fill="#333549" d="M5.83,17.64c-0.69,0-1.39,0-2.08,0c-0.55,0-0.88-0.33-0.88-0.88c0-0.72,0-1.44,0-2.16
		c0-0.26-0.13-0.43-0.37-0.48c-0.27-0.06-0.45,0.08-0.58,0.3c0,0.91,0,1.81,0,2.72c0.05,0.01,0.03,0.06,0.04,0.09
		c0.19,0.69,0.62,1.13,1.32,1.32c0.03,0.01,0.08-0.01,0.09,0.04c0.89,0,1.79,0,2.68,0c0.28-0.14,0.39-0.34,0.33-0.58
		C6.32,17.75,6.17,17.64,5.83,17.64z"/>
	<path fill="#333549" d="M1.95,6.6C2.1,6.85,2.29,6.94,2.53,6.87c0.24-0.07,0.34-0.22,0.34-0.53c0-0.7,0-1.4,0-2.1
		c0-0.56,0.32-0.88,0.88-0.88c0.72,0,1.45,0,2.17,0c0.35,0,0.55-0.3,0.45-0.63C6.32,2.56,6.2,2.48,6.06,2.41c-0.88,0-1.77,0-2.65,0
		C3.22,2.49,3.02,2.52,2.84,2.62C2.4,2.87,2.11,3.24,1.98,3.73c-0.01,0.05,0,0.11-0.06,0.14c0,0.91,0,1.81,0,2.72
		C1.93,6.59,1.95,6.59,1.95,6.6z"/>
	<path fill="#333549" d="M15.52,10.98c0.67,0,1.33,0,2-0.01c0.06,0,0.13,0,0.19-0.02c0.22-0.06,0.36-0.29,0.33-0.53
		c-0.03-0.24-0.21-0.4-0.45-0.4c-0.69,0-1.38,0-2.06-0.01c-0.06,0-0.13,0.01-0.19,0.01c-1.57,0-3.15,0-4.72,0
		c-0.2,0-0.41,0-0.61-0.01c-0.06,0-0.13,0.01-0.19,0.01c-1.72,0-3.45,0-5.17,0c-0.73,0-1.45,0-2.18,0c-0.36,0-0.57,0.29-0.47,0.63
		c0.07,0.2,0.23,0.3,0.5,0.3c2.44,0,4.88,0,7.31,0c0.06,0,0.13,0.01,0.19,0.01c0.05,0,0.1-0.01,0.16-0.01c1.74,0,3.47,0,5.21,0
		C15.41,10.97,15.47,10.97,15.52,10.98z"/>
	<path fill="#333549" d="M12.77,5.89c0.45,0,0.9,0,1.35,0c0.31,0,0.45,0.14,0.45,0.45c0,0.47,0,0.95,0,1.42
		c0,0.2,0.09,0.35,0.28,0.44c0.27,0.12,0.53,0,0.67-0.29c0-0.58,0.02-1.17,0-1.75c-0.02-0.63-0.58-1.18-1.2-1.21
		c-0.58-0.02-1.17,0-1.75,0c-0.27,0.13-0.38,0.34-0.32,0.59C12.3,5.77,12.47,5.89,12.77,5.89z"/>
	<path fill="#333549" d="M14.31,15.99c0.63-0.02,1.18-0.58,1.2-1.21c0.02-0.58,0-1.17,0-1.75c-0.13-0.27-0.34-0.38-0.59-0.32
		c-0.23,0.06-0.35,0.23-0.35,0.53c0,0.45,0,0.9,0,1.36c0,0.31-0.14,0.45-0.45,0.45c-0.47,0-0.94,0-1.42,0
		c-0.22,0-0.37,0.1-0.44,0.29c-0.1,0.27,0.01,0.52,0.3,0.65C13.14,15.99,13.73,16.01,14.31,15.99z"/>
	<path fill="#333549" d="M7.33,15.05c-0.46,0-0.92,0-1.39,0c-0.3,0-0.44-0.14-0.44-0.45c0-0.47,0-0.95,0-1.42
		c0-0.29-0.19-0.48-0.47-0.48c-0.28,0-0.47,0.18-0.47,0.48c0,0.51-0.01,1.02,0,1.53c0.01,0.61,0.46,1.14,1.06,1.26
		c0.32,0.06,0.64,0.01,0.9,0.03c0.31,0,0.56,0,0.81,0c0.32,0,0.51-0.18,0.5-0.48C7.83,15.22,7.64,15.05,7.33,15.05z"/>
	<path fill="#333549" d="M4.51,5.99C4.45,6.32,4.5,6.64,4.48,6.91c0,0.31,0,0.56,0,0.82c0,0.32,0.18,0.51,0.48,0.5
		c0.29,0,0.47-0.19,0.47-0.51c0-0.46,0-0.93,0-1.39c0-0.3,0.14-0.44,0.44-0.44c0.48,0,0.96,0,1.43,0c0.28,0,0.46-0.2,0.46-0.47
		c0-0.28-0.18-0.47-0.46-0.47c-0.52,0-1.04-0.01-1.56,0C5.15,4.95,4.62,5.41,4.51,5.99z"/>
</g>
</svg>
