<?xml version="1.0" encoding="utf-8"?>
<!-- Generator: Adobe Illustrator 16.0.0, SVG Export Plug-In . SVG Version: 6.00 Build 0)  -->
<!DOCTYPE svg PUBLIC "-//W3C//DTD SVG 1.1//EN" "http://www.w3.org/Graphics/SVG/1.1/DTD/svg11.dtd">
<svg version="1.1" id="Layer_1" xmlns="http://www.w3.org/2000/svg" xmlns:xlink="http://www.w3.org/1999/xlink" x="0px" y="0px"
	 width="376.75px" height="401.516px" viewBox="0 0 376.75 401.516" enable-background="new 0 0 376.75 401.516"
	 xml:space="preserve">
<image overflow="visible" width="456" height="412" xlink:href="Screenshot 2023-08-31 at 1.39.09 PM.png"  transform="matrix(1 0 0 1 -648.4712 49.5156)">
</image>
<g>
	<path d="M1723.472-1435.514l-0.393-2.574c-1.289-8.536-2.621-17.363-6.363-25.521c-2.77-11.954-7.707-23.795-15.057-36.121
		c-4.998-10.287-11.637-20.15-20.248-30.095c-0.334-0.449-0.652-0.911-0.973-1.374c-0.719-1.037-1.459-2.11-2.367-3.051
		c-1.549-1.607-3.092-3.283-4.584-4.904c-4.885-5.306-9.936-10.792-16.178-14.938c-1.082-0.915-2.146-1.854-3.213-2.794
		c-2.365-2.087-4.813-4.246-7.438-6.109c-10.927-7.758-20.924-14.546-32.54-19.015c-16.225-8.003-33.819-13.4-52.268-16.037
		c-9.365-1.596-16.58-2.307-23.395-2.307c-1.627,0-3.248,0.043-4.726,0.127c-1.335-0.049-2.707-0.073-4.079-0.073
		c-6.967,0-14.305,0.606-23.061,1.905l-1.67,0.194c-7.508,0.868-15.271,1.764-22.603,4.528
		c-10.886,2.417-20.154,5.793-28.324,10.319c-4.689,1.073-8.905,3.546-12.299,5.538c-1.703,0.999-3.479,1.963-5.198,2.896
		c-4.489,2.436-9.131,4.955-13.104,8.432c-1.421,0.712-2.722,1.58-3.868,2.583c-0.248,0.088-0.53,0.213-0.793,0.405
		c-20.707,15.094-37.977,34.2-51.332,56.79l-0.504,0.852c-3.017,5.095-6.135,10.361-8.254,16.31
		c-0.572,0.756-1.151,1.566-1.536,2.466c-0.267,0.629-0.403,1.228-0.412,1.822c-3.339,5.787-5.277,12.156-6.83,17.695
		c-3.132,6.541-3.87,13.553-4.451,21.377l-0.73,9.816l8.688-30.594l6.742-16.687c0.13-0.126,0.234-0.278,0.309-0.451
		c0.171-0.391,0.412-0.791,0.668-1.213c0.519-0.86,1.101-1.824,1.21-2.977c0.54-0.604,0.827-1.303,1.084-1.927
		c0.104-0.251,0.203-0.498,0.321-0.724c11.889-22.784,27.627-42.438,46.777-58.416c0.84-0.7,1.674-1.406,2.508-2.112l0.977-0.826
		c1.691-1.1,3.36-2.27,4.962-3.478c1.042-0.785,2.178-1.5,3.276-2.191c1.467-0.923,2.984-1.877,4.37-3.048
		c0.149-0.127,0.268-0.28,0.351-0.45c0.24-0.166,0.477-0.338,0.712-0.51c0.358-0.262,0.715-0.523,1.081-0.752
		c10.166-6.351,19.486-11.37,28.414-15.312c2.75-0.937,5.521-1.946,8.202-2.923c5.708-2.08,11.611-4.231,17.529-5.755l23.958-4.693
		c5.957-0.768,12.074-0.874,17.989-0.976c2.917-0.05,5.934-0.103,8.815-0.233c10.158,0.451,20.225,1.647,27.79,2.629
		c17.489,3.511,34.594,9.13,50.753,16.655l16.634,9.847c6.854,4.061,13.165,9.132,19.267,14.036
		c2.203,1.769,4.479,3.598,6.754,5.358l20.902,23.525c6.283,8.917,12.047,18.4,17.619,27.573l1.354,2.227
		c0.84,2.043,1.695,4.08,2.549,6.117c3.584,8.541,7.287,17.371,9.754,26.468c-0.102,1.085,0.209,1.915,0.928,2.477l0.266,1.366
		c-0.33,1.016-0.076,1.945,0.705,2.598c0.078,0.539,0.154,1.082,0.234,1.644c0.229,1.34,0.463,2.679,0.697,4.018
		c0.523,2.998,1.066,6.098,1.529,9.152c2.732,17.981,2.969,34.877,0.727,51.651c-0.551,4.121-1.355,8.271-2.135,12.284
		c-0.73,3.759-1.484,7.645-2.033,11.518c-0.676,1.95-1.344,3.905-2.01,5.859c-3.758,11.007-7.645,22.39-13.119,32.881
		c-4.832,8.923-10.691,17.437-15.799,24.87l-2.281,2.707c-1.68,1.996-3.359,3.991-5.055,5.973
		c-7.557,8.832-16.389,16.67-24.928,24.249c-1.241,1.102-2.482,2.203-3.72,3.308l-23.008,14.334
		c-11.198,5.477-23.431,10.349-39.65,15.793l-2.956,0.605c-12.211,2.505-24.838,5.096-37.544,5.096c-0.761,0-1.521-0.01-2.321-0.028
		c-0.467,0-0.833,0.212-1.101,0.367c-0.005,0.003-0.009,0.005-0.013,0.008l-24.493-1.174c-4.872-0.423-9.739-1.506-14.446-2.554
		c-3.674-0.818-7.472-1.663-11.283-2.201l-27.105-9.654l-24.866-13.036l-22.813-16.965c-11.442-11.576-23.42-24.078-33.116-38.443
		c-14.299-21.181-24.068-46.074-29.864-76.101c-0.184-0.951-0.344-1.911-0.505-2.874c-0.647-3.879-1.317-7.89-3.543-11.583
		l-1.213-2.013l-0.609,2.271c-0.575,2.143-0.882,4.415-0.939,6.944c-0.191,8.465,0.728,17.658,2.89,28.934
		c4.991,26.017,15.216,49.742,30.39,70.518c8.785,12.027,18.743,24.493,32.007,34.193c6.931,6.925,15.084,12.937,24.237,17.87
		c8.343,5.837,17.48,10.5,27.164,13.862c8.164,3.957,16.971,6.973,26.1,8.943c8.628,2.585,17.781,4.262,27.143,4.977
		c6.629,0.921,12.806,1.368,18.881,1.368c2.461,0,4.922-0.077,7.232-0.227c0.906,0.019,1.813,0.027,2.717,0.027
		c0.002,0,0.002,0,0.003,0c13.178,0,26.833-2.021,40.515-5.992c13.971-2.996,27.873-8.311,41.323-15.798
		c8.558-3.61,16.181-8.954,23.257-14.124c6.565-3.67,11.983-8.678,17.221-13.521l1.332-1.229
		c7.373-6.802,14.996-13.835,20.732-22.468c6.797-7.372,11.908-15.836,16.004-23.129c5.922-10.025,11.947-20.811,14.924-32.806
		c1.438-1.094,1.881-2.664,2.275-4.062c0.092-0.328,0.186-0.655,0.291-0.974C1725.746-1375.024,1728.173-1404.98,1723.472-1435.514z
		 M1656.707-1551.269c0,0.003,0,0.006,0,0.01l0,0C1656.707-1551.263,1656.707-1551.266,1656.707-1551.269z"/>
	<path d="M1699.701-1298.283c-0.658,0-1.219,0.402-1.43,1.023c-0.445,1.311-1.266,2.419-2.078,3.441
		c-0.504,0.469-1.818,1.937-1.998,2.297c-0.039,0.069-0.182,0.301-0.379,0.622l-0.174,0.284c-0.168,0.112-0.311,0.26-0.424,0.438
		c-0.193,0.303-0.379,0.606-0.564,0.911c-0.232,0.381-0.465,0.761-0.711,1.135c-0.633,0.688-1.324,1.36-1.994,2.011
		c-1.49,1.448-3.031,2.944-4.16,4.821l-0.025,0.023c-0.646,0.648-1.443,1.445-2.039,2.395c-1.816,1.479-3.291,3.272-4.719,5.007
		c-1.012,1.229-2.057,2.498-3.191,3.608c-0.16,0.157-0.322,0.331-0.467,0.516c-1.572,1.419-3.332,3.029-5.191,4.731
		c-7.277,6.66-16.334,14.949-21.178,18.223c-2.564,1.561-5.14,3.193-7.63,4.771c-6.953,4.406-14.143,8.963-21.776,12.397
		c-4.885,2.198-9.887,4.36-14.725,6.452c-2.175,0.94-4.35,1.881-6.522,2.827l-27.877,7.707l-26.829,3.512l-28.993,0.031
		c-6.062,0-12.118-1.121-17.974-2.206c-3.844-0.712-7.816-1.447-11.785-1.869c-7.229-1.733-14.512-3.785-21.557-5.77
		c-6.875-1.937-13.984-3.939-21.068-5.654l-4.888-1.184l4.063,2.963c11.587,8.451,25.278,14.032,42.999,17.545
		c8.795,2.562,18.4,4.022,30.207,4.595c5.551,0.399,10.105,0.586,14.334,0.586c5.332,0,10.148-0.3,14.725-0.916
		c8.75,0.109,17.664-1.165,27.381-3.88c8.813-1.246,18.032-4.013,28.932-8.678c17.73-5.98,34.172-15.103,50.258-27.888
		c6.57-3.791,12.934-10.187,19.092-16.371c3.229-3.244,6.279-6.309,9.184-8.812c0.189-0.136,0.367-0.288,0.527-0.444
		c2.826-2.759,4.947-5.205,6.662-7.684c0.074-0.056,0.145-0.12,0.207-0.191c0.502-0.56,0.967-1.149,1.414-1.72l0.313-0.396
		c0.246-0.31,0.434-0.628,0.607-0.94c0.066-0.062,0.127-0.129,0.178-0.198c0.168-0.228,0.303-0.457,0.43-0.69
		c1.533-1.551,2.867-3.317,3.971-5.255c0.508-0.41,0.836-0.981,1.063-1.377c0.08-0.14,0.164-0.278,0.246-0.416l0.07-0.118
		c0.318-0.305,0.666-0.652,0.961-1.102c0.283-0.43,0.553-0.867,0.824-1.304c0.35-0.565,0.701-1.13,1.08-1.678
		c0.406-0.588,0.857-1.153,1.295-1.701c1.051-1.318,2.137-2.681,2.756-4.5c0.154-0.455,0.088-0.932-0.182-1.307
		C1700.669-1298.049,1700.203-1298.283,1699.701-1298.283z"/>
	<path d="M1689.914-1355.271c-0.838,3.486-1.676,6.972-2.486,10.463c-0.041,0.173-0.098,0.353-0.154,0.535
		c-0.262,0.843-0.877,2.817,1.291,3.621c0.318,0.118,0.637,0.178,0.943,0.178c1.424,0,2.209-1.184,2.781-2.049l0.137-0.206
		c2.914-4.326,5.307-9.032,7.311-14.388c11.867-31.699,13.068-65.47,3.566-100.373c-0.344-1.262-0.67-2.533-1-3.808
		c-1.723-6.682-3.504-13.591-7.686-19.556c-1.055-2.17-2.084-4.406-3.082-6.568c-2.311-5.011-4.699-10.193-7.582-15
		c-4.061-6.77-8.26-13.768-14.387-19.413c-0.992-2.572-2.951-4.162-4.846-5.7c-1.063-0.863-2.068-1.679-2.896-2.651
		c-12.576-14.75-28.289-26.83-46.655-35.878c-10.629-5.926-20.521-9.897-30.173-12.125c-11.44-3.485-23.829-6.765-36.937-7.189
		c-1.223-0.716-2.521-0.734-3.677-0.751c-0.304-0.004-0.608-0.008-0.911-0.026c-2.35-0.137-4.742-0.204-7.314-0.204
		c-7.506,0-15.098,0.593-22.439,1.166l-1.144,0.089c-9.087,0.968-19.782,2.459-30.138,6.162
		c-12.553,3.325-24.188,8.253-34.58,14.647c-11.964,5.798-23.107,13.574-33.119,23.111c-5.025,3.2-8.846,7.659-12.543,11.972
		c-1.502,1.752-3.055,3.565-4.654,5.248c-4.507,4.743-9.574,10.368-12.725,17.16c-5.708,7.083-9.64,15.316-13.11,22.584
		c-17.021,35.642-21.591,73.583-13.583,112.765c5.338,26.118,16.025,49.61,31.73,69.777c10.006,14.499,23.533,27.517,41.335,39.783
		c14.228,10.313,28.648,17.609,44.017,22.285c13.398,5.159,27.969,8.202,43.223,9.036c5.342,0.745,10.877,1.124,16.449,1.124
		c10.185,0,20.689-1.212,32.034-3.689c8.462-1.125,16.983-3.396,25.331-6.747c2.834-0.252,5.307-1.516,7.7-2.738
		c0.472-0.24,0.942-0.481,1.341-0.681c4.885-1.911,9.569-4.354,14.101-6.717c1.897-0.989,3.796-1.979,5.712-2.933l0.861-0.475
		l-0.02-0.041c0.576-0.357,1.082-0.742,1.491-1.068c0.102-0.081,0.189-0.171,0.264-0.268c0.819-0.258,1.678-0.675,2.34-1.665
		c0.837-0.431,1.677-0.841,2.444-1.219c0.757-0.283,1.596-0.598,2.294-1.302c0.379-0.032,0.723-0.217,0.977-0.529
		c0.502-0.615,1.237-1.039,2.017-1.488c1.111-0.642,2.371-1.368,3.095-2.793c0.24-0.473,0.22-1.021-0.054-1.466
		c-0.282-0.459-0.785-0.745-1.314-0.745c-0.546,0-1.023,0.3-1.278,0.802c-0.243,0.479-0.653,0.876-1.374,1.33l-0.004,0.002
		c-0.258,0.163-0.525,0.317-0.793,0.472c-0.337,0.194-0.682,0.393-1.019,0.612l-0.49,0.285c-0.388,0.227-0.79,0.386-1.218,0.555
		c-0.722,0.285-1.531,0.604-2.223,1.286c-1.329,0.488-2.435,1.297-3.418,2.032c-0.678,0.251-1.185,0.552-1.615,0.957
		c-0.881,0.535-1.718,1.104-2.491,1.693l-24.271,11.313c-9.621,2.529-19.243,5.063-28.847,7.591
		c-6.424,1.565-12.939,2.104-19.605,2.562c-2.461,0.17-5.092,0.252-8.041,0.252c-3.6,0-7.264-0.123-10.807-0.242
		c-3.344-0.112-6.801-0.229-10.16-0.24c-14.707-0.825-29.126-5.308-41.797-9.245c-0.896-0.332-1.791-0.657-2.686-0.982
		c-4.266-1.552-8.676-3.157-12.824-5.346c-7.666-4.045-15.221-8.563-22.525-12.933c-1.596-0.954-3.191-1.909-4.742-2.829
		c-15.592-10.517-27.63-24.515-39.556-39.077c-5.882-8.452-13.331-19.775-18.755-32.416c-15.422-35.931-18.752-73.426-9.9-111.441
		c4.451-19.115,12.416-37.394,23.619-54.256c2.32-2.885,4.555-5.897,6.717-8.81c3.983-5.367,8.103-10.917,12.879-15.838
		c1.166-1.202,2.533-2.283,3.854-3.329c2.31-1.827,4.694-3.715,6.317-6.417c1.467-1.152,2.928-2.313,4.389-3.474
		c8.844-7.026,17.99-14.291,28.28-19.48c10.507-5.109,21.37-10.392,32.805-13.729c11.052-2.741,20.245-4.643,28.875-5.976
		c7.453-0.706,15.535-1.048,24.708-1.048c3.175,0,6.508,0.04,10.104,0.115c12.732,1.394,25.186,4.016,36.752,6.644l28.742,11.355
		c2.758,1.887,5.674,3.583,8.494,5.224c3.485,2.027,7.088,4.123,10.37,6.57c11.062,8.25,20.222,18.755,29.083,28.915l2.619,3
		c9.023,13.484,16.904,27.754,23.43,42.419c-0.15,1.049,0.059,2.371,1.496,3.458c0.027,2.308,0.738,4.413,1.428,6.453
		c0.178,0.523,0.354,1.049,0.52,1.576c8.957,28.597,10.502,58.022,4.588,87.458
		C1693.578-1370.519,1691.714-1362.768,1689.914-1355.271z"/>
</g>
<g>
	<path fill-rule="evenodd" clip-rule="evenodd" fill="#90CEF9" d="M1301.178-1538.302c-1.454-9.446-2.632-19.063-6.719-27.922
		c-2.963-12.853-8.279-24.724-15.005-36.009c-5.309-10.926-12.221-20.773-20.15-29.936c-1.078-1.45-2.014-3.037-3.258-4.327
		c-6.61-6.856-12.579-14.394-20.642-19.734c-3.53-2.98-6.875-6.224-10.629-8.89c-10.23-7.263-20.578-14.379-32.403-18.934
		c-16.47-8.124-33.828-13.352-51.993-15.948c-9.263-1.578-18.564-2.678-27.989-2.166c-9.06-0.331-18.04,0.499-26.987,1.825
		c-8.153,0.953-16.336,1.749-24.102,4.689c-9.872,2.187-19.381,5.369-28.25,10.302c-4.425,0.983-8.313,3.203-12.153,5.456
		c-6.173,3.623-12.829,6.526-18.247,11.303c-1.418,0.699-2.747,1.578-3.92,2.628c-0.259,0.082-0.506,0.178-0.714,0.33
		c-20.951,15.271-37.881,34.198-51.06,56.49c-3.223,5.45-6.527,10.892-8.728,17.134c-0.558,0.732-1.141,1.521-1.502,2.364
		c-0.001,0.004-0.003,0.008-0.005,0.013c-0.23,0.542-0.363,1.105-0.327,1.69c-3.255,5.557-5.173,11.635-6.896,17.79
		c-3.178,6.59-3.851,13.799-4.394,21.097c2.004-7.059,4.009-14.117,6.014-21.177c2.288-5.664,4.577-11.329,6.867-16.993
		c0.085-0.039,0.164-0.102,0.215-0.22c0.595-1.364,1.805-2.604,1.812-4.16c0.021-0.03,0.043-0.06,0.063-0.09
		c0.01-0.015,0.01-0.031,0.018-0.046c0.76-0.725,0.992-1.789,1.419-2.607c11.826-22.662,27.375-42.327,47.024-58.722
		c1.181-0.985,2.353-1.982,3.528-2.975c1.691-1.098,3.342-2.254,4.957-3.472c2.46-1.855,5.237-3.206,7.601-5.203
		c0.1-0.085,0.141-0.199,0.143-0.317c0.724-0.474,1.404-1.035,2.119-1.482c9.212-5.755,18.677-11.023,28.622-15.41
		c8.611-2.932,17.028-6.44,25.862-8.713c8.007-1.567,16.014-3.136,24.021-4.703c8.958-1.154,17.984-0.821,26.977-1.217
		c9.358,0.415,18.659,1.44,27.943,2.647c17.692,3.552,34.71,9.153,51.066,16.775c5.545,3.282,11.09,6.563,16.634,9.847
		c9.417,5.58,17.573,12.853,26.185,19.512c1.29-2.016,1.247-4.223,1.208-6.429c0.039,2.206,0.083,4.413-1.206,6.427
		c7.004,7.881,14.007,15.765,21.012,23.648c6.831,9.689,12.928,19.849,19.084,29.969c4.464,10.866,9.355,21.57,12.423,32.963
		c-0.113,0.809,0.011,1.519,0.812,1.947c0.135,0.686,0.268,1.372,0.402,2.059c-0.359,0.819-0.197,1.478,0.596,1.942
		c0.1,0.681,0.197,1.361,0.293,2.043c0.749,4.395,1.561,8.78,2.229,13.188c2.624,17.274,3.054,34.546,0.729,51.935
		c-1.076,8.044-3.055,15.892-4.183,23.904c-4.573,13.189-8.735,26.541-15.228,38.981c-4.721,8.718-10.305,16.887-15.914,25.039
		c-2.445,2.896-4.876,5.805-7.34,8.685c-8.702,10.171-18.859,18.831-28.806,27.71c-7.708,4.803-15.416,9.604-23.124,14.406
		c-12.889,6.307-26.29,11.326-39.875,15.885c-14.224,2.898-28.411,6.065-43.068,5.705c-0.297-0.008-0.6,0.252-0.9,0.387
		c-8.269-0.396-16.537-0.794-24.806-1.189c-8.781-0.762-17.186-3.561-25.883-4.774c-9.089-3.237-18.178-6.476-27.268-9.713
		l-24.998-13.104c-7.646-5.686-15.292-11.371-22.937-17.058c-11.979-12.116-23.664-24.384-33.288-38.641
		c-15.756-23.34-24.736-49.111-30.018-76.471c-0.916-4.743-1.256-9.705-3.922-14.13c-0.601,2.24-0.855,4.472-0.905,6.708
		c-0.219,9.688,1.053,19.237,2.872,28.723c4.91,25.595,14.853,49.082,30.216,70.116c9.204,12.601,19.082,24.698,31.851,34.021
		c7.139,7.145,15.229,12.998,24.111,17.779c8.363,5.857,17.375,10.445,27.021,13.789c8.305,4.03,16.986,6.961,26.003,8.911
		c8.816,2.642,17.822,4.242,26.994,4.944c8.629,1.198,17.291,1.684,25.996,1.132c14.65,0.302,28.958-1.869,43.004-5.942
		c14.512-3.112,28.15-8.51,41.095-15.721c8.415-3.542,15.837-8.72,23.154-14.067c6.401-3.567,11.779-8.508,17.084-13.411
		c7.888-7.289,15.935-14.503,21.947-23.57c-0.001,0-0.001-0.001-0.002-0.001c6.398-6.925,11.349-14.853,15.94-23.028
		c6.159-10.426,12.016-20.989,14.903-32.899c1.73-1.107,1.934-3.046,2.498-4.748
		C1303.62-1478.667,1305.804-1508.256,1301.178-1538.302z"/>
	<path fill-rule="evenodd" clip-rule="evenodd" fill="#90CEF9" d="M1277.913-1399.878c-0.489,1.439-1.364,2.639-2.294,3.807
		c-0.434,0.368-1.746,1.877-1.849,2.082c-0.031,0.063-0.337,0.558-0.729,1.2c-0.107,0.028-0.21,0.09-0.286,0.209
		c-0.452,0.708-0.863,1.428-1.328,2.126c-2.088,2.287-4.615,4.189-6.185,6.894c-0.025,0.019-0.052,0.026-0.076,0.051
		c-0.725,0.726-1.461,1.475-1.984,2.357c-3.091,2.465-5.167,5.915-7.973,8.659c-0.149,0.146-0.301,0.31-0.43,0.484
		c0-0.001-0.001-0.001-0.001-0.001c-7.821,7.062-20.384,18.937-26.587,23.127c-9.731,5.924-19.074,12.528-29.516,17.227
		c-7.072,3.183-14.213,6.214-21.323,9.313c-9.337,2.582-18.675,5.164-28.012,7.744c-8.988,1.178-17.976,2.354-26.963,3.529
		c-9.664,0.011-19.327,0.021-28.99,0.031c-10.187,0.014-19.957-3.029-29.998-4.088c-14.316-3.429-28.338-7.965-42.69-11.439
		c12.829,9.356,27.363,14.352,42.689,17.393c9.797,2.854,19.844,4.064,30,4.558c9.651,0.694,19.297,0.971,28.925-0.334
		c9.278,0.118,18.329-1.366,27.236-3.86c10.047-1.411,19.538-4.675,28.817-8.644c18.371-6.196,34.885-15.736,50.015-27.77
		c9.934-5.706,19.765-17.863,28.224-25.142l-0.001-0.001c0.16-0.111,0.312-0.239,0.446-0.371c2.443-2.386,4.735-4.899,6.656-7.708
		c0.059-0.023,0.115-0.061,0.166-0.117c0.593-0.663,1.136-1.374,1.688-2.071c0.241-0.304,0.428-0.643,0.614-0.981
		c0.057-0.033,0.109-0.075,0.15-0.132c0.164-0.221,0.294-0.458,0.422-0.696c1.597-1.597,2.926-3.379,4.016-5.331
		c0.421-0.27,0.718-0.771,0.961-1.194c0.128-0.224,0.264-0.444,0.396-0.667c0.326-0.312,0.653-0.626,0.914-1.023
		c0.653-0.991,1.24-2.022,1.917-3c1.397-2.017,3.117-3.573,3.926-5.953C1279.085-1400.225,1278.119-1400.485,1277.913-1399.878z"/>
	<path fill-rule="evenodd" clip-rule="evenodd" fill="#90CEF9" d="M1281.033-1560.168c-2.15-7.9-3.691-16.173-8.585-23.117
		c0,0,0,0,0,0c-3.51-7.215-6.548-14.711-10.658-21.564c-4.122-6.872-8.333-13.841-14.383-19.353c-1.36-3.843-5.2-5.403-7.648-8.276
		c-12.92-15.153-28.542-26.863-46.382-35.653c-9.481-5.286-19.358-9.589-29.977-12.042c-12.065-3.676-24.241-6.782-36.946-7.154
		c-1.335-0.901-2.863-0.684-4.345-0.771c-10.277-0.601-20.504,0.251-30.733,1.048c-10.192,1.085-20.282,2.667-29.987,6.134
		c-12.145,3.217-23.643,7.961-34.355,14.559c-12.221,5.917-23.167,13.662-32.982,23.024c-6.976,4.411-11.551,11.287-17.09,17.117
		c-4.822,5.074-9.585,10.46-12.594,17.003c-5.518,6.817-9.318,14.64-13.064,22.483c-17.122,35.854-21.438,73.316-13.505,112.134
		c5.209,25.488,15.518,48.789,31.574,69.409c11.019,15.967,25.234,28.61,41.098,39.542c13.415,9.723,27.902,17.325,43.79,22.163
		c0-0.001,0-0.001,0-0.002c13.845,5.331,28.211,8.167,43,8.979c16.237,2.266,32.282,0.908,48.214-2.566
		c8.722-1.16,17.114-3.469,25.23-6.74c3.237-0.243,6.022-1.947,8.909-3.366c6.842-2.677,13.183-6.353,19.732-9.613l-0.018-0.037
		c0.779-0.381,1.484-0.886,2.173-1.434c0.12-0.096,0.168-0.209,0.169-0.32c0.959-0.254,1.77-0.577,2.354-1.592
		c0.924-0.481,1.86-0.938,2.797-1.394c0.892-0.334,1.687-0.646,2.259-1.457c0.174,0.128,0.408,0.15,0.588-0.07
		c1.403-1.719,3.941-2.027,4.994-4.102c0.291-0.573-0.571-1.079-0.863-0.504c-0.389,0.767-1.025,1.278-1.732,1.724
		c-0.002,0-0.003,0.001-0.005,0.001c0,0.001,0.001,0.001,0.001,0.002c-0.777,0.489-1.632,0.905-2.354,1.468
		c0.007-0.029,0.017-0.051,0.023-0.081c-1.223,0.713-2.479,0.819-3.387,1.841c-1.316,0.436-2.397,1.235-3.497,2.059
		c-0.565,0.196-1.062,0.444-1.479,0.863c-0.906,0.545-1.783,1.137-2.624,1.787c-0.002-0.003-0.003-0.007-0.005-0.01
		c-8.136,3.791-16.272,7.582-24.408,11.376c-9.65,2.537-19.3,5.077-28.951,7.618c-6.499,1.583-13.108,2.131-19.774,2.588
		c-9.735,0.669-19.423-0.192-29.132-0.23c-14.535-0.815-28.32-5.025-42.089-9.306c-5.277-1.954-10.563-3.708-15.628-6.381
		c-9.338-4.928-18.307-10.433-27.36-15.817c-15.738-10.615-27.933-24.818-39.817-39.335c-7.194-10.337-13.837-20.904-18.854-32.593
		c-15.597-36.34-18.896-73.665-9.955-112.063c4.572-19.632,12.641-37.847,23.813-54.656c6.59-8.195,12.236-17.071,19.658-24.718
		c3.271-3.37,7.697-5.545,10.124-9.721c10.588-8.313,20.867-17.065,32.997-23.183c10.74-5.223,21.483-10.439,33.001-13.8
		c9.595-2.38,19.246-4.492,29.021-6.001c11.65-1.103,23.328-1.189,35.015-0.932c12.469,1.365,24.726,3.903,36.939,6.68
		c9.639,3.809,19.279,7.617,28.918,11.425c6.16,4.229,12.971,7.392,18.99,11.881c12.239,9.129,21.942,20.735,31.901,32.107
		c9.119,13.623,17.023,27.917,23.672,42.903c-0.319,1.429,0.33,2.384,1.504,3.083c0,0.001-0.043,0.026-0.043,0.025
		c-0.092,2.904,1.055,5.512,1.898,8.205c9.059,28.92,10.576,58.274,4.614,87.954c-2.25,11.201-5.114,22.278-7.698,33.412
		c-0.252,1.082-1.051,2.413,0.511,2.992c1.348,0.5,2.031-0.728,2.685-1.698c2.984-4.431,5.33-9.177,7.203-14.18
		C1289.797-1493.271,1290.168-1526.605,1281.033-1560.168z"/>
</g>
<g>
	<path d="M95.298,223.477l-23.201-42.899c-0.163-0.263-0.163-0.395-0.163-0.724c0-0.789,0.896-1.645,2.117-1.645
		c1.058,0,1.791,0.592,2.198,1.382l21.735,41.254l21.817-41.32c0.407-0.724,1.14-1.315,2.117-1.315c1.14,0,2.035,0.79,2.035,1.579
		c0,0.264,0,0.395-0.163,0.658l-23.282,43.03c-0.489,0.921-1.221,1.514-2.524,1.514h-0.163
		C96.519,224.99,95.787,224.397,95.298,223.477z"/>
	<path d="M134.455,179.459c0-1.118,1.058-1.974,2.442-1.974s2.523,0.855,2.523,1.974v1.118c0,1.119-1.14,1.975-2.523,1.975
		s-2.442-0.855-2.442-1.975V179.459z M134.943,192.355c0-0.922,0.814-1.646,1.954-1.646s2.035,0.658,2.035,1.646v30.792
		c0,0.987-0.814,1.645-1.954,1.645s-2.035-0.657-2.035-1.645V192.355z"/>
	<path d="M156.84,215.91v-21.976h-4.477c-0.977,0-1.873-0.725-1.873-1.514s0.896-1.447,1.873-1.447h4.477v-9.344
		c0-0.921,0.814-1.645,1.954-1.645c1.14,0,2.035,0.724,2.035,1.645v9.344h13.025c0.977,0,1.873,0.724,1.873,1.513
		c0,0.79-0.896,1.448-1.873,1.448h-13.025v21.646c0,4.803,3.5,6.514,8.304,6.514c2.849,0,4.151-0.658,4.721-0.658
		c0.896,0,1.791,0.658,1.791,1.448c0,0.657-0.488,1.118-1.302,1.382c-1.628,0.46-3.5,0.854-5.861,0.854
		C162.05,225.121,156.84,222.292,156.84,215.91z"/>
	<path d="M183.785,214.792v-0.132c0-6.975,7.408-10.923,18.153-10.923c5.78,0,9.769,0.593,13.757,1.448v-1.448
		c0-6.776-5.128-10.264-13.676-10.264c-4.559,0-8.385,0.921-11.804,2.237c-0.325,0.132-0.651,0.197-0.895,0.197
		c-0.977,0-1.873-0.724-1.873-1.514c0-0.789,0.732-1.315,1.14-1.447c4.233-1.514,8.385-2.5,13.676-2.5
		c5.617,0,10.094,1.25,13.106,3.685c2.768,2.236,4.233,5.329,4.233,9.475v19.541c0,0.987-0.814,1.645-1.954,1.645
		s-1.954-0.657-1.954-1.645v-4.211c-2.849,3.225-7.978,6.383-15.874,6.383C192.088,225.319,183.785,221.766,183.785,214.792z
		 M215.777,211.962v-3.815c-3.5-0.724-8.141-1.514-14.083-1.514c-8.792,0-13.676,3.158-13.676,7.83v0.131
		c0,4.869,5.698,7.698,12.048,7.698C208.532,222.292,215.777,218.081,215.777,211.962z"/>
	<path d="M234.5,177.88c0-0.921,0.814-1.645,1.954-1.645s2.035,0.724,2.035,1.645v45.268c0,0.987-0.814,1.645-1.954,1.645
		s-2.035-0.657-2.035-1.645V177.88z"/>
	<path d="M253.141,222.095l20.352-21.055l-19.375-19.936c-0.407-0.461-0.732-0.855-0.732-1.316c0-0.789,0.977-1.579,2.035-1.579
		c0.814,0,1.302,0.329,1.791,0.855l18.886,19.673l18.642-19.476c0.57-0.592,1.14-1.053,2.035-1.053c1.058,0,1.872,0.724,1.872,1.579
		c0,0.395-0.244,0.789-0.57,1.118l-19.456,20.068l20.107,20.923c0.488,0.461,0.732,0.855,0.732,1.316
		c0,0.789-0.977,1.578-2.035,1.578c-0.814,0-1.303-0.328-1.791-0.854l-19.7-20.66l-19.456,20.462
		c-0.57,0.593-1.14,1.053-2.035,1.053c-1.058,0-1.873-0.724-1.873-1.578C252.571,222.818,252.815,222.424,253.141,222.095z"/>
</g>
<path fill="#8CCEF9" d="M-287.203-243.12c0,0,29.5-120.125,120-144.25c91.402-24.365,155-17.75,216.5,61.75
	c61.5,79.5,36,185-24,242.5s-162.5,65-234,12.5s-72.5-116.5-78.5-139.5c0,0-16,98.5,96,164.5c0,0,115,62,220.5-26.5
	c0,0,84.5-67.5,60.5-186c0,0-17.25-111.25-138.75-144.75c-15.02-4.142-55.738-6.67-60.875-6.125
	c-15.18,1.61-26.508,2.954-34.25,5.25c-14.75,4.375-30.994,9.578-43.5,16.125c-21.25,11.125-41.75,23.75-67.625,59.5
	C-281.792-291.382-287.993-239.12-287.203-243.12z"/>
<g>
	<path fill="none" d="M1513.989-369.251c-102.034,0-184.751,82.715-184.751,184.75c0,0.707,0.019,1.408,0.027,2.113h369.447
		c0.008-0.705,0.027-1.406,0.027-2.113C1698.739-286.536,1616.023-369.251,1513.989-369.251z"/>
	<path fill="#8CCEF9" d="M1329.238-184.501c0-102.035,82.717-184.75,184.751-184.75s184.75,82.715,184.75,184.75
		c0,0.707-0.019,1.408-0.027,2.113h10c0.008-0.705,0.027-1.406,0.027-2.113c0-107.559-87.193-194.75-194.751-194.75
		s-194.75,87.192-194.75,194.75c0,0.707,0.019,1.408,0.027,2.113h10C1329.257-183.093,1329.238-183.794,1329.238-184.501z"/>
	<path fill="#8CCEF9" d="M1513.988,10.249c106.851,0,193.589-86.054,194.724-192.637h-10
		c-1.134,101.062-83.396,182.637-184.723,182.637s-183.59-81.575-184.724-182.637h-10
		C1320.4-75.805,1407.137,10.249,1513.988,10.249z"/>
</g>
<circle fill="#8CCEF9" cx="1342.159" cy="562.382" r="194.75"/>
<circle fill="#3399CC" cx="1342.159" cy="562.383" r="184.75"/>
<g>
	<path fill="none" d="M1193.814-1105.613c0.341-0.402,0.678-0.81,1.022-1.209C1194.495-1106.42,1194.153-1106.018,1193.814-1105.613
		z"/>
	<path fill="none" d="M1482.626-1100.381l-2.811-3.164c1.667,2.026,3.289,4.091,4.871,6.188
		C1483.999-1098.364,1483.326-1099.387,1482.626-1100.381z"/>
	<path fill="none" d="M1470.461-1114.073l-8.737-9.833c-2.275-1.76-4.551-3.589-6.754-5.358
		c-6.102-4.904-12.414-9.975-19.268-14.036l-16.633-9.847c-16.16-7.525-33.265-13.144-50.754-16.655
		c-7.565-0.981-17.631-2.178-27.79-2.629c-2.881,0.131-5.898,0.183-8.815,0.233c-5.915,0.103-12.032,0.208-17.99,0.976
		l-10.471,2.051l-6.265,1.228l-7.222,1.415c-5.918,1.524-11.821,3.675-17.529,5.755c-2.68,0.977-5.452,1.986-8.202,2.923
		c-8.928,3.942-18.249,8.961-28.414,15.312c-0.366,0.229-0.722,0.49-1.081,0.752c-0.235,0.172-0.472,0.344-0.711,0.51
		c-0.083,0.17-0.202,0.323-0.351,0.45c-0.072,0.061-0.148,0.115-0.221,0.175c29.44-19.495,64.736-30.858,102.69-30.858
		C1388.826-1171.51,1436.558-1149.467,1470.461-1114.073z"/>
	<path fill="none" d="M1501.599-1070.582l-0.454-0.746c0.226,0.431,0.459,0.856,0.681,1.289
		C1501.75-1070.219,1501.673-1070.4,1501.599-1070.582z"/>
	<path fill="none" d="M1228.229-1137.22c-0.817,0.521-1.635,1.054-2.402,1.632c-1.602,1.208-3.271,2.378-4.961,3.478l-0.977,0.826
		c-0.834,0.706-1.668,1.412-2.508,2.112c-7.95,6.633-15.302,13.909-22.044,21.77
		C1205.067-1118.594,1216.111-1128.614,1228.229-1137.22z"/>
	<path d="M1530.37-1015.323l-0.393-2.574c-1.289-8.537-2.621-17.363-6.363-25.521c-2.77-11.953-7.707-23.795-15.057-36.12
		c-4.998-10.287-11.637-20.15-20.248-30.095c-0.334-0.449-0.652-0.911-0.973-1.374c-0.719-1.037-1.459-2.11-2.367-3.051
		c-1.549-1.607-3.092-3.283-4.584-4.904c-4.885-5.306-9.936-10.792-16.178-14.938c-1.082-0.915-2.146-1.854-3.213-2.794
		c-2.365-2.087-4.813-4.246-7.438-6.109c-10.928-7.758-20.924-14.546-32.539-19.015c-16.226-8.003-33.82-13.4-52.268-16.037
		c-0.795-0.136-1.555-0.256-2.32-0.379c-8.247-1.324-14.839-1.928-21.074-1.928c-1.628,0-3.249,0.043-4.726,0.127
		c-1.335-0.049-2.707-0.073-4.079-0.073c-6.968,0-14.306,0.606-23.062,1.905l-1.669,0.194c-7.508,0.868-15.271,1.764-22.603,4.528
		c-10.886,2.417-20.154,5.793-28.324,10.319c-4.689,1.073-8.905,3.546-12.299,5.538c-1.703,0.999-3.479,1.963-5.198,2.896
		c-4.49,2.436-9.131,4.955-13.105,8.432c-1.421,0.712-2.721,1.58-3.869,2.583c-0.248,0.088-0.53,0.213-0.792,0.405
		c-20.707,15.094-37.977,34.2-51.332,56.79l-0.504,0.852c-3.017,5.095-6.135,10.36-8.253,16.31
		c-0.573,0.756-1.152,1.566-1.537,2.467c-0.267,0.629-0.403,1.228-0.412,1.821c-0.689,1.193-1.305,2.415-1.883,3.646
		c-4.646,12.619-7.942,25.892-9.711,39.642l-0.417,5.601l1.955-6.883c6.4-31.038,20.529-59.248,40.278-82.546
		c0.338-0.405,0.68-0.807,1.022-1.209c0.167-0.193,0.333-0.387,0.5-0.579c6.743-7.861,14.095-15.137,22.044-21.77
		c0.839-0.7,1.674-1.406,2.508-2.112l0.977-0.826c1.691-1.1,3.36-2.27,4.961-3.478c0.767-0.578,1.585-1.112,2.402-1.632
		c1.653-1.174,3.332-2.312,5.024-3.432c0.073-0.06,0.149-0.114,0.221-0.175c0.149-0.127,0.268-0.28,0.351-0.45
		c0.24-0.166,0.476-0.338,0.711-0.51c0.359-0.262,0.715-0.523,1.081-0.752c10.166-6.351,19.486-11.37,28.414-15.312
		c2.75-0.937,5.522-1.946,8.202-2.923c5.708-2.08,11.611-4.231,17.529-5.755l7.222-1.415l6.265-1.228l10.471-2.051
		c5.958-0.768,12.075-0.874,17.99-0.976c2.917-0.05,5.934-0.103,8.815-0.233c10.159,0.451,20.225,1.647,27.79,2.629
		c17.489,3.511,34.594,9.13,50.754,16.655l16.633,9.847c6.854,4.061,13.166,9.132,19.268,14.036
		c2.203,1.769,4.479,3.598,6.754,5.358l8.737,9.833c3.247,3.39,6.368,6.901,9.354,10.528l2.811,3.164
		c0.7,0.994,1.373,2.017,2.061,3.024c6.173,8.177,11.683,16.881,16.458,26.029l0.454,0.746c0.074,0.182,0.151,0.362,0.227,0.543
		c13.022,25.43,20.369,54.245,20.369,84.777c0,102.863-83.388,186.251-186.251,186.251c-100.723,0-182.759-79.958-186.128-179.861
		c-0.172-0.328-0.341-0.657-0.536-0.98l-1.213-2.014l-0.609,2.271c-0.575,2.143-0.882,4.414-0.939,6.943
		c-0.191,8.465,0.728,17.658,2.89,28.934c4.991,26.018,15.216,49.742,30.391,70.518c8.785,12.027,18.743,24.494,32.006,34.193
		c6.93,6.926,15.084,12.938,24.237,17.871c8.343,5.836,17.481,10.5,27.164,13.861c8.165,3.957,16.971,6.973,26.1,8.943
		c8.628,2.586,17.781,4.262,27.143,4.977c6.629,0.922,12.806,1.369,18.881,1.369c2.46,0,4.922-0.078,7.232-0.227
		c0.906,0.018,1.813,0.027,2.717,0.027c0.002,0,0.001,0,0.002,0c13.177,0,26.833-2.021,40.514-5.992
		c13.971-2.996,27.873-8.311,41.323-15.799c8.559-3.609,16.182-8.953,23.258-14.123c6.564-3.67,11.982-8.678,17.221-13.521
		l1.332-1.229c7.373-6.801,14.996-13.834,20.732-22.467c6.797-7.373,11.908-15.836,16.004-23.129
		c5.922-10.025,11.947-20.811,14.924-32.807c1.438-1.094,1.881-2.664,2.275-4.061c0.092-0.328,0.186-0.656,0.291-0.975
		C1532.644-954.834,1535.071-984.79,1530.37-1015.323z"/>
	<path d="M934.079-868.214c-0.658,0-1.22,0.402-1.431,1.023c-0.444,1.311-1.266,2.418-2.078,3.441
		c-0.504,0.469-1.818,1.936-1.998,2.297c-0.039,0.068-0.182,0.301-0.378,0.621l-0.174,0.285c-0.168,0.111-0.312,0.26-0.425,0.438
		c-0.193,0.303-0.379,0.605-0.564,0.91c-0.232,0.381-0.464,0.762-0.711,1.135c-0.632,0.689-1.324,1.361-1.994,2.012
		c-1.49,1.447-3.03,2.943-4.16,4.82l-0.024,0.023c-0.646,0.648-1.443,1.445-2.039,2.395c-1.817,1.48-3.292,3.273-4.72,5.008
		c-1.011,1.229-2.056,2.498-3.19,3.607c-0.161,0.158-0.322,0.332-0.468,0.516c-1.571,1.42-3.331,3.029-5.19,4.732
		c-7.277,6.66-16.335,14.949-21.179,18.223c-2.564,1.561-5.14,3.193-7.63,4.771c-6.953,4.406-14.143,8.963-21.776,12.396
		c-4.884,2.199-9.887,4.361-14.724,6.453c-2.175,0.939-4.351,1.881-6.523,2.826l-27.877,7.707l-26.829,3.512l-28.993,0.031
		c-6.062,0-12.118-1.121-17.974-2.205c-3.843-0.713-7.815-1.447-11.785-1.869c-7.228-1.734-14.512-3.785-21.556-5.77
		c-6.875-1.938-13.985-3.939-21.069-5.654l-4.887-1.184l4.063,2.963c11.587,8.451,25.278,14.031,42.999,17.545
		c8.794,2.561,18.4,4.021,30.208,4.594c5.551,0.4,10.105,0.586,14.333,0.586c5.332,0,10.149-0.299,14.725-0.916
		c8.75,0.109,17.664-1.164,27.38-3.879c8.814-1.246,18.033-4.014,28.932-8.678c17.731-5.98,34.172-15.104,50.258-27.889
		c6.57-3.791,12.935-10.186,19.092-16.371c3.229-3.244,6.28-6.309,9.184-8.811c0.189-0.137,0.368-0.289,0.528-0.445
		c2.825-2.758,4.947-5.205,6.662-7.684c0.074-0.055,0.144-0.119,0.207-0.191c0.501-0.559,0.966-1.148,1.414-1.719l0.313-0.396
		c0.246-0.309,0.434-0.627,0.607-0.939c0.066-0.063,0.126-0.129,0.177-0.199c0.169-0.227,0.303-0.457,0.43-0.689
		c1.533-1.551,2.867-3.318,3.971-5.256c0.508-0.41,0.836-0.98,1.063-1.377c0.08-0.139,0.163-0.277,0.246-0.416l0.07-0.117
		c0.318-0.305,0.665-0.652,0.96-1.102c0.283-0.43,0.554-0.867,0.825-1.305c0.35-0.564,0.7-1.129,1.079-1.678
		c0.407-0.588,0.858-1.152,1.295-1.701c1.051-1.318,2.138-2.68,2.756-4.5c0.154-0.455,0.089-0.932-0.181-1.307
		C935.047-867.98,934.58-868.214,934.079-868.214z"/>
	<path d="M936.681-1031.23c-1.723-6.682-3.505-13.59-7.686-19.555c-1.055-2.171-2.085-4.406-3.082-6.568
		c-2.311-5.012-4.699-10.193-7.583-15.001c-4.061-6.77-8.259-13.768-14.387-19.413c-0.992-2.572-2.95-4.162-4.845-5.7
		c-1.063-0.863-2.068-1.679-2.896-2.651c-12.576-14.75-28.289-26.83-46.656-35.878c-10.628-5.926-20.52-9.897-30.172-12.125
		c-11.44-3.485-23.83-6.765-36.936-7.189c-1.223-0.716-2.522-0.734-3.677-0.751c-0.304-0.004-0.609-0.008-0.911-0.026
		c-2.35-0.137-4.743-0.204-7.314-0.204c-7.506,0-15.098,0.593-22.439,1.166l-1.144,0.089c-9.086,0.968-19.782,2.459-30.137,6.162
		c-12.554,3.325-24.188,8.253-34.581,14.647c-11.964,5.798-23.107,13.574-33.12,23.111c-5.025,3.2-8.846,7.659-12.542,11.972
		c-1.502,1.752-3.055,3.565-4.655,5.248c-4.507,4.743-9.574,10.368-12.725,17.16c-5.708,7.082-9.64,15.316-13.11,22.584
		c-17.021,35.643-21.591,73.582-13.583,112.766c5.338,26.117,16.025,49.609,31.731,69.777
		c10.006,14.498,23.533,27.516,41.334,39.783c14.228,10.313,28.648,17.609,44.017,22.285c13.398,5.158,27.968,8.201,43.222,9.035
		c5.342,0.746,10.877,1.125,16.45,1.125c10.184,0,20.689-1.213,32.034-3.689c8.462-1.125,16.984-3.396,25.332-6.748
		c2.834-0.252,5.307-1.516,7.7-2.738c0.471-0.24,0.943-0.48,1.34-0.68c4.885-1.912,9.57-4.355,14.101-6.717
		c1.898-0.99,3.796-1.979,5.712-2.934l0.861-0.475l-0.02-0.041c0.576-0.357,1.082-0.742,1.491-1.068
		c0.102-0.08,0.189-0.17,0.264-0.268c0.819-0.258,1.678-0.674,2.34-1.664c0.837-0.432,1.677-0.842,2.444-1.219
		c0.757-0.283,1.596-0.598,2.294-1.303c0.379-0.031,0.723-0.217,0.977-0.529c0.502-0.615,1.237-1.039,2.017-1.488
		c1.111-0.641,2.371-1.367,3.095-2.793c0.24-0.473,0.22-1.02-0.054-1.465c-0.282-0.459-0.785-0.746-1.314-0.746
		c-0.546,0-1.023,0.301-1.278,0.803c-0.243,0.479-0.653,0.875-1.374,1.33l-0.004,0.002c-0.258,0.162-0.525,0.316-0.793,0.471
		c-0.337,0.195-0.682,0.393-1.019,0.613l-0.49,0.285c-0.388,0.227-0.79,0.385-1.218,0.555c-0.722,0.285-1.531,0.604-2.223,1.285
		c-1.329,0.488-2.435,1.297-3.418,2.033c-0.678,0.25-1.185,0.551-1.615,0.957c-0.881,0.535-1.718,1.104-2.491,1.693l-24.271,11.313
		c-9.621,2.529-19.243,5.063-28.847,7.59c-6.424,1.566-12.94,2.105-19.605,2.563c-2.461,0.17-5.091,0.252-8.042,0.252
		c-3.6,0-7.263-0.123-10.806-0.242c-3.344-0.113-6.801-0.229-10.16-0.24c-14.708-0.826-29.126-5.309-41.798-9.246
		c-0.895-0.332-1.79-0.656-2.685-0.982c-4.266-1.551-8.677-3.156-12.824-5.346c-7.667-4.045-15.221-8.563-22.526-12.932
		c-1.595-0.955-3.191-1.91-4.742-2.83c-15.592-10.516-27.63-24.514-39.556-39.076c-5.882-8.453-13.331-19.775-18.755-32.416
		c-15.421-35.932-18.752-73.426-9.9-111.441c4.451-19.115,12.416-37.395,23.619-54.257c2.32-2.885,4.556-5.897,6.717-8.81
		c3.983-5.367,8.103-10.917,12.879-15.838c1.167-1.202,2.533-2.283,3.854-3.329c2.309-1.827,4.695-3.715,6.317-6.417
		c1.467-1.152,2.928-2.313,4.389-3.474c8.844-7.026,17.99-14.291,28.28-19.48c10.506-5.109,21.371-10.392,32.805-13.729
		c11.051-2.741,20.245-4.643,28.875-5.976c7.453-0.706,15.535-1.048,24.708-1.048c3.174,0,6.508,0.04,10.103,0.115
		c12.732,1.394,25.186,4.016,36.752,6.644l28.742,11.355c2.757,1.887,5.674,3.583,8.494,5.224c3.485,2.027,7.088,4.123,10.37,6.57
		c11.062,8.25,20.223,18.755,29.083,28.915l2.62,3c9.022,13.484,16.903,27.753,23.429,42.419c-0.149,1.049,0.06,2.371,1.496,3.457
		c0.028,2.309,0.739,4.414,1.429,6.453c0.177,0.523,0.354,1.049,0.52,1.576c8.957,28.598,10.501,58.023,4.588,87.459
		c-1.541,7.672-3.404,15.424-5.206,22.92c-0.838,3.486-1.676,6.971-2.485,10.463c-0.041,0.172-0.098,0.352-0.154,0.535
		c-0.263,0.842-0.877,2.816,1.291,3.621c0.318,0.117,0.636,0.178,0.943,0.178c1.423,0,2.208-1.184,2.781-2.049l0.137-0.207
		c2.914-4.326,5.306-9.031,7.311-14.387c11.867-31.699,13.067-65.471,3.566-100.373
		C937.337-1028.683,937.01-1029.955,936.681-1031.23z"/>
	<path fill="#0099FF" d="M1194.837-1106.822c0.165-0.194,0.334-0.385,0.5-0.579
		C1195.169-1107.209,1195.003-1107.016,1194.837-1106.822z"/>
</g>
<g>
	<path fill="#8CCEF9" d="M364.051-677.55c-98.308,0-178.004,79.696-178.004,178.004s79.696,178.005,178.004,178.005
		c98.309,0,178.005-79.696,178.005-178.005S462.36-677.55,364.051-677.55z M364.051-324.829
		c-96.492,0-174.715-78.225-174.715-174.717s78.223-174.715,174.715-174.715c96.493,0,174.716,78.223,174.716,174.715
		S460.544-324.829,364.051-324.829z"/>
</g>
<path fill="#3399CC" d="M741.84-716.297c-107.003,0-193.75,86.745-193.75,193.751c0,107.007,86.746,193.75,193.75,193.75
	c107.005,0,193.75-86.743,193.75-193.75C935.59-629.552,848.845-716.297,741.84-716.297z M741.84-339.546
	c-101.067,0-183-81.931-183-183s81.933-183.001,183-183.001c101.069,0,183,81.932,183,183.001S842.909-339.546,741.84-339.546z"/>
<circle fill="#006699" cx="741.84" cy="-522.546" r="183"/>
<g>
	<path fill="#3399CC" d="M1152.738-697.896c-107.142,0-194,86.856-194,194.002s86.858,194,194,194c107.144,0,194-86.854,194-194
		S1259.882-697.896,1152.738-697.896z M1152.738-319.176c-102.016,0-184.719-82.7-184.719-184.72s82.704-184.721,184.719-184.721
		c102.018,0,184.719,82.701,184.719,184.721S1254.756-319.176,1152.738-319.176z"/>
	<circle fill="#33CCFF" cx="1152.738" cy="-503.896" r="184.72"/>
</g>
<g>
	<g>
		<linearGradient id="SVGID_1_" gradientUnits="userSpaceOnUse" x1="89.4248" y1="340.9414" x2="363.5742" y2="340.9414">
			<stop  offset="0" style="stop-color:#6633CC"/>
			<stop  offset="0.7097" style="stop-color:#7A6EE0"/>
			<stop  offset="0.8387" style="stop-color:#99CCFF"/>
		</linearGradient>
		<path fill="url(#SVGID_1_)" d="M336.698,324.78c-42.673,52.147-123.141,79.636-185.22,69.875
			c-18.178-2.43-48.808-10.697-62.053-18.93c21.72,12.147,45.912,20.134,66.738,23.3c67.095,10.2,130.923-10.616,178.137-68.311
			c12.724-15.549,22.452-32.563,29.274-50.348C356.934,296.002,347.999,310.971,336.698,324.78z"/>
	</g>
	<linearGradient id="SVGID_2_" gradientUnits="userSpaceOnUse" x1="0" y1="193.9365" x2="376.75" y2="193.9365">
		<stop  offset="0" style="stop-color:#6633CC"/>
		<stop  offset="0.7097" style="stop-color:#7A6EE0"/>
		<stop  offset="0.8387" style="stop-color:#99CCFF"/>
	</linearGradient>
	<path fill="url(#SVGID_2_)" d="M249.559,12.107C229.204,4.293,207.104,0,184,0c-11.844,0-23.42,1.139-34.638,3.289
		c-47.9,9.178-89.158,37.028-115.917,75.686C16.551,103.377,5.46,132.094,2.106,163.133c-0.314,2.908-0.586,5.83-0.762,8.777
		c0.604-4.975,1.417-9.883,2.41-14.725c1.305-6.363,2.928-12.611,4.875-18.717C31.011,62.693,101.114,7.389,184.144,7.389
		c25.348,0,49.485,5.164,71.433,14.48c63.517,26.965,108.659,88.779,111.419,161.459c-0.014,8.137,0.161,16.251-0.884,24.106
		c0.151,1.859-0.45,3.614-0.354,5.489c-1.382,11.221-3.774,22.127-7.089,32.625c-0.052,0.164-0.101,0.332-0.153,0.496
		C336.134,321.822,266.032,377.123,183,377.123c-70.729,0-132.08-40.131-162.543-98.861c-9.752-17.313-16.757-36.375-20.447-56.596
		C0.008,221.912,0,222.156,0,222.402c0,13.914,1.561,27.463,4.503,40.488c3.968,12.838,9.301,25.078,15.846,36.537
		c34.533,53.229,94.476,88.445,162.65,88.445c34.253,0,66.423-8.9,94.344-24.496c34.202-19.105,62.017-48.273,79.436-83.5
		c12.784-25.85,19.97-54.961,19.97-85.754C376.75,110.504,323.777,39.254,249.559,12.107z"/>
	<g>
		<linearGradient id="SVGID_3_" gradientUnits="userSpaceOnUse" x1="9.8369" y1="193.9365" x2="358.0024" y2="193.9365">
			<stop  offset="0" style="stop-color:#6633CC"/>
			<stop  offset="0.7097" style="stop-color:#7A6EE0"/>
			<stop  offset="0.8387" style="stop-color:#99CCFF"/>
		</linearGradient>
		<path fill="url(#SVGID_3_)" d="M310.857,70.152c-7.256-7.348-15.15-14.063-23.601-20.048
			c-25.619-18.143-56.303-29.604-89.519-31.847h-24.014c-23.378,1.579-45.505,7.715-65.495,17.542
			C49.951,64.451,9.837,124.4,9.837,193.727c0,18.952,3.009,37.196,8.555,54.297c22.882,70.565,89.144,121.592,167.333,121.592
			c26.306,0,51.255-5.786,73.663-16.14c16.032-7.407,30.763-17.145,43.749-28.796c-14.516,11.997-30.94,21.765-48.744,28.796
			c-15.158,5.988-31.317,9.987-48.16,11.674c-5.994,0.6-12.072,0.908-18.224,0.908c-39.737,0-76.472-12.828-106.313-34.552
			c-41.675-31.518-68.61-81.5-68.61-137.779c0-95.345,77.294-172.638,172.639-172.638c14.239,0,28.071,1.733,41.309,4.983
			c8.101,1.641,15.977,3.899,23.58,6.724c19.184,7.752,39.442,19.333,51.974,32.203c33.087,32.977,47.337,79.977,47.748,120.466
			c0.086,8.488,0.177,4.398,0.105,17.96c-1.849,22.797-5.111,29.906-9.22,43.925c3.809-5.532,7.318-11.285,10.511-17.232
			c1.777-4.992,3.338-10.08,4.681-15.247c1.04-7.781,1.589-15.718,1.589-23.784c0-22.982-4.953-47.86-12.266-65.121
			c0,0-2.437-7.989-8.562-19.489c-3.837-7.205-9.331-14.724-9.331-14.724c-1.138-1.699-2.299-3.383-3.494-5.041
			c-0.006-0.009-0.013-0.018-0.019-0.026c-1.235-1.713-10.532-14.209-12.157-14.959 M315.808,75.783"/>
	</g>
</g>
<text transform="matrix(1.2373 0 0 1 -1077.0669 224.5293)" font-family="'GothamRounded-Light'" font-size="65.7923">VitalX</text>
<g>
	<g>
		<linearGradient id="SVGID_4_" gradientUnits="userSpaceOnUse" x1="-1055.0181" y1="340.9414" x2="-780.8687" y2="340.9414">
			<stop  offset="0" style="stop-color:#6633CC"/>
			<stop  offset="0.7097" style="stop-color:#7A6EE0"/>
			<stop  offset="0.8387" style="stop-color:#99CCFF"/>
		</linearGradient>
		<path fill="url(#SVGID_4_)" d="M-807.745,324.78c-42.673,52.147-123.141,79.636-185.22,69.875
			c-18.178-2.43-48.808-10.697-62.053-18.93c21.72,12.147,45.912,20.134,66.738,23.3c67.095,10.2,130.923-10.616,178.137-68.311
			c12.724-15.549,22.452-32.563,29.274-50.348C-787.509,296.002-796.444,310.971-807.745,324.78z"/>
	</g>
	<linearGradient id="SVGID_5_" gradientUnits="userSpaceOnUse" x1="-1144.4429" y1="193.9365" x2="-767.6929" y2="193.9365">
		<stop  offset="0" style="stop-color:#6633CC"/>
		<stop  offset="0.7097" style="stop-color:#7A6EE0"/>
		<stop  offset="0.8387" style="stop-color:#99CCFF"/>
	</linearGradient>
	<path fill="url(#SVGID_5_)" d="M-894.884,12.107C-915.239,4.293-937.338,0-960.443,0c-11.844,0-23.42,1.139-34.638,3.289
		c-47.9,9.178-89.158,37.028-115.917,75.686c-16.894,24.402-27.984,53.119-31.338,84.158c-0.314,2.908-0.586,5.83-0.762,8.777
		c0.604-4.975,1.417-9.883,2.41-14.725c1.305-6.363,2.928-12.611,4.875-18.717c22.382-75.775,92.485-131.08,175.515-131.08
		c25.348,0,49.485,5.164,71.433,14.48c63.517,26.965,108.659,88.779,111.419,161.459c-0.014,8.137,0.161,16.251-0.884,24.106
		c0.151,1.859-0.45,3.614-0.354,5.489c-1.382,11.221-3.774,22.127-7.089,32.625c-0.052,0.164-0.101,0.332-0.153,0.496
		c-22.382,75.777-92.484,131.078-175.516,131.078c-70.729,0-132.08-40.131-162.543-98.861
		c-9.752-17.313-16.757-36.375-20.447-56.596c-0.001,0.246-0.009,0.49-0.009,0.736c0,13.914,1.561,27.463,4.503,40.488
		c3.968,12.838,9.301,25.078,15.846,36.537c34.533,53.229,94.476,88.445,162.65,88.445c34.253,0,66.423-8.9,94.344-24.496
		c34.202-19.105,62.017-48.273,79.436-83.5c12.784-25.85,19.97-54.961,19.97-85.754C-767.693,110.504-820.666,39.254-894.884,12.107
		z"/>
	<g>
		<linearGradient id="SVGID_6_" gradientUnits="userSpaceOnUse" x1="-1134.606" y1="193.9365" x2="-786.4404" y2="193.9365">
			<stop  offset="0" style="stop-color:#6633CC"/>
			<stop  offset="0.7097" style="stop-color:#7A6EE0"/>
			<stop  offset="0.8387" style="stop-color:#99CCFF"/>
		</linearGradient>
		<path fill="url(#SVGID_6_)" d="M-833.585,70.152c-7.256-7.348-15.15-14.063-23.601-20.048
			c-25.619-18.143-56.303-29.604-89.519-31.847h-24.014c-23.378,1.579-45.505,7.715-65.495,17.542
			c-58.279,28.651-98.393,88.601-98.393,157.927c0,18.952,3.009,37.196,8.555,54.297c22.882,70.565,89.144,121.592,167.333,121.592
			c26.306,0,51.255-5.786,73.663-16.14c16.032-7.407,30.763-17.145,43.749-28.796c-14.516,11.997-30.94,21.765-48.744,28.796
			c-15.158,5.988-31.317,9.987-48.16,11.674c-5.994,0.6-12.072,0.908-18.224,0.908c-39.737,0-76.472-12.828-106.313-34.552
			c-41.675-31.518-68.61-81.5-68.61-137.779c0-95.345,77.294-172.638,172.639-172.638c14.239,0,28.071,1.733,41.309,4.983
			c8.101,1.641,15.977,3.899,23.58,6.724c19.184,7.752,39.442,19.333,51.974,32.203c33.087,32.977,47.337,79.977,47.748,120.466
			c0.086,8.488,0.177,4.398,0.105,17.96c-1.849,22.797-5.111,29.906-9.22,43.925c3.809-5.532,7.318-11.285,10.511-17.232
			c1.777-4.992,3.338-10.08,4.681-15.247c1.04-7.781,1.589-15.718,1.589-23.784c0-22.982-4.953-47.86-12.266-65.121
			c0,0-2.437-7.989-8.562-19.489c-3.837-7.205-9.331-14.724-9.331-14.724c-1.138-1.699-2.299-3.383-3.494-5.041
			c-0.006-0.009-0.013-0.018-0.019-0.026c-1.235-1.713-10.532-14.209-12.157-14.959 M-828.635,75.783"/>
	</g>
</g>
</svg>
